<svg width="1024" height="753" viewBox="0 0 1024 753" fill="none" xmlns="http://www.w3.org/2000/svg">
<g opacity="0.2" filter="url(#filter0_f_175_198)">
<ellipse cx="512.5" cy="16" rx="670.5" ry="350" fill="#35875D"/>
</g>
<path d="M33.0349 252C34.5302 252 35.6622 252.63 36.4308 253.891C37.2134 255.138 37.6047 256.953 37.6047 259.336C37.6047 261.719 37.2134 263.541 36.4308 264.802C35.6622 266.063 34.5302 266.693 33.0349 266.693C31.5536 266.693 30.4216 266.063 29.639 264.802C28.8564 263.541 28.4651 261.719 28.4651 259.336C28.4651 256.967 28.8564 255.152 29.639 253.891C30.4216 252.63 31.5536 252 33.0349 252ZM29.9534 259.336C29.9534 261.026 30.1072 262.35 30.4146 263.306L35.0683 254.099C34.5791 253.448 33.9013 253.122 33.0349 253.122C32.0706 253.122 31.316 253.635 30.771 254.66C30.2259 255.672 29.9534 257.23 29.9534 259.336ZM33.0349 265.55C34.0131 265.55 34.7748 265.044 35.3198 264.033C35.8648 263.008 36.1373 261.442 36.1373 259.336C36.1373 257.549 35.9627 256.163 35.6133 255.18L30.9596 264.469C31.4627 265.19 32.1545 265.55 33.0349 265.55Z" fill="url(#paint0_linear_175_198)" fill-opacity="0.6"/>
<path d="M34.2926 289.135H37.3741V290.236H29.3874V289.135H32.9511V277.455L29.5551 279.471L28.9682 278.536L33.1607 275.959H34.2926V289.135Z" fill="url(#paint1_linear_175_198)" fill-opacity="0.6"/>
<path d="M33.0349 299.502C34.5302 299.502 35.6622 300.133 36.4308 301.393C37.2134 302.64 37.6047 304.455 37.6047 306.838C37.6047 309.221 37.2134 311.043 36.4308 312.304C35.6622 313.565 34.5302 314.195 33.0349 314.195C31.5536 314.195 30.4216 313.565 29.639 312.304C28.8564 311.043 28.4651 309.221 28.4651 306.838C28.4651 304.469 28.8564 302.654 29.639 301.393C30.4216 300.133 31.5536 299.502 33.0349 299.502ZM29.9534 306.838C29.9534 308.529 30.1072 309.852 30.4146 310.808L35.0683 301.601C34.5791 300.95 33.9013 300.624 33.0349 300.624C32.0706 300.624 31.316 301.137 30.771 302.162C30.2259 303.174 29.9534 304.732 29.9534 306.838ZM33.0349 313.052C34.0131 313.052 34.7748 312.546 35.3198 311.535C35.8648 310.51 36.1373 308.944 36.1373 306.838C36.1373 305.051 35.9627 303.665 35.6133 302.682L30.9596 311.971C31.4627 312.692 32.1545 313.052 33.0349 313.052Z" fill="url(#paint2_linear_175_198)" fill-opacity="0.6"/>
<path d="M34.2926 336.637H37.3741V337.738H29.3874V336.637H32.9511V324.957L29.5551 326.973L28.9682 326.038L33.1607 323.461H34.2926V336.637Z" fill="url(#paint3_linear_175_198)" fill-opacity="0.6"/>
<path d="M34.2926 360.388H37.3741V361.489H29.3874V360.388H32.9511V348.708L29.5551 350.724L28.9682 349.789L33.1607 347.212H34.2926V360.388Z" fill="url(#paint4_linear_175_198)" fill-opacity="0.6"/>
<path d="M33.0349 370.755C34.5302 370.755 35.6622 371.386 36.4308 372.646C37.2134 373.893 37.6047 375.708 37.6047 378.091C37.6047 380.474 37.2134 382.296 36.4308 383.557C35.6622 384.818 34.5302 385.448 33.0349 385.448C31.5536 385.448 30.4216 384.818 29.639 383.557C28.8564 382.296 28.4651 380.474 28.4651 378.091C28.4651 375.722 28.8564 373.907 29.639 372.646C30.4216 371.386 31.5536 370.755 33.0349 370.755ZM29.9534 378.091C29.9534 379.782 30.1072 381.105 30.4146 382.061L35.0683 372.854C34.5791 372.203 33.9013 371.878 33.0349 371.878C32.0706 371.878 31.316 372.39 30.771 373.415C30.2259 374.427 29.9534 375.985 29.9534 378.091ZM33.0349 384.305C34.0131 384.305 34.7748 383.8 35.3198 382.788C35.8648 381.763 36.1373 380.197 36.1373 378.091C36.1373 376.304 35.9627 374.919 35.6133 373.935L30.9596 383.225C31.4627 383.945 32.1545 384.305 33.0349 384.305Z" fill="url(#paint5_linear_175_198)" fill-opacity="0.6"/>
<path d="M34.2926 407.89H37.3741V408.992H29.3874V407.89H32.9511V396.21L29.5551 398.226L28.9682 397.291L33.1607 394.714H34.2926V407.89Z" fill="url(#paint6_linear_175_198)" fill-opacity="0.6"/>
<path d="M33.0349 418.257C34.5302 418.257 35.6622 418.888 36.4308 420.149C37.2134 421.396 37.6047 423.211 37.6047 425.594C37.6047 427.977 37.2134 429.798 36.4308 431.059C35.6622 432.32 34.5302 432.95 33.0349 432.95C31.5536 432.95 30.4216 432.32 29.639 431.059C28.8564 429.798 28.4651 427.977 28.4651 425.594C28.4651 423.224 28.8564 421.409 29.639 420.149C30.4216 418.888 31.5536 418.257 33.0349 418.257ZM29.9534 425.594C29.9534 427.284 30.1072 428.607 30.4146 429.563L35.0683 420.356C34.5791 419.705 33.9013 419.38 33.0349 419.38C32.0706 419.38 31.316 419.892 30.771 420.918C30.2259 421.929 29.9534 423.488 29.9534 425.594ZM33.0349 431.807C34.0131 431.807 34.7748 431.302 35.3198 430.29C35.8648 429.265 36.1373 427.699 36.1373 425.594C36.1373 423.806 35.9627 422.421 35.6133 421.437L30.9596 430.727C31.4627 431.447 32.1545 431.807 33.0349 431.807Z" fill="url(#paint7_linear_175_198)" fill-opacity="0.6"/>
<path d="M33.0349 442.008C34.5302 442.008 35.6622 442.639 36.4308 443.9C37.2134 445.147 37.6047 446.962 37.6047 449.345C37.6047 451.728 37.2134 453.549 36.4308 454.81C35.6622 456.071 34.5302 456.701 33.0349 456.701C31.5536 456.701 30.4216 456.071 29.639 454.81C28.8564 453.549 28.4651 451.728 28.4651 449.345C28.4651 446.975 28.8564 445.16 29.639 443.9C30.4216 442.639 31.5536 442.008 33.0349 442.008ZM29.9534 449.345C29.9534 451.035 30.1072 452.358 30.4146 453.314L35.0683 444.107C34.5791 443.456 33.9013 443.131 33.0349 443.131C32.0706 443.131 31.316 443.643 30.771 444.669C30.2259 445.68 29.9534 447.239 29.9534 449.345ZM33.0349 455.558C34.0131 455.558 34.7748 455.053 35.3198 454.041C35.8648 453.016 36.1373 451.451 36.1373 449.345C36.1373 447.557 35.9627 446.172 35.6133 445.188L30.9596 454.478C31.4627 455.198 32.1545 455.558 33.0349 455.558Z" fill="url(#paint8_linear_175_198)" fill-opacity="0.6"/>
<path d="M34.2926 479.143H37.3741V480.245H29.3874V479.143H32.9511V467.464L29.5551 469.48L28.9682 468.544L33.1607 465.967H34.2926V479.143Z" fill="url(#paint9_linear_175_198)" fill-opacity="0.6"/>
<path d="M33.0349 489.511C34.5302 489.511 35.6622 490.141 36.4308 491.402C37.2134 492.649 37.6047 494.464 37.6047 496.847C37.6047 499.23 37.2134 501.052 36.4308 502.312C35.6622 503.573 34.5302 504.204 33.0349 504.204C31.5536 504.204 30.4216 503.573 29.639 502.312C28.8564 501.052 28.4651 499.23 28.4651 496.847C28.4651 494.478 28.8564 492.663 29.639 491.402C30.4216 490.141 31.5536 489.511 33.0349 489.511ZM29.9534 496.847C29.9534 498.537 30.1072 499.86 30.4146 500.816L35.0683 491.61C34.5791 490.958 33.9013 490.633 33.0349 490.633C32.0706 490.633 31.316 491.145 30.771 492.171C30.2259 493.182 29.9534 494.741 29.9534 496.847ZM33.0349 503.061C34.0131 503.061 34.7748 502.555 35.3198 501.543C35.8648 500.518 36.1373 498.953 36.1373 496.847C36.1373 495.059 35.9627 493.674 35.6133 492.69L30.9596 501.98C31.4627 502.7 32.1545 503.061 33.0349 503.061Z" fill="url(#paint10_linear_175_198)" fill-opacity="0.6"/>
<path d="M34.2926 526.645H37.3741V527.747H29.3874V526.645H32.9511V514.966L29.5551 516.982L28.9682 516.046L33.1607 513.469H34.2926V526.645Z" fill="url(#paint11_linear_175_198)" fill-opacity="0.6"/>
<path d="M34.2926 550.396H37.3741V551.498H29.3874V550.396H32.9511V538.717L29.5551 540.733L28.9682 539.798L33.1607 537.221H34.2926V550.396Z" fill="url(#paint12_linear_175_198)" fill-opacity="0.6"/>
<path d="M71.9651 299.502C73.4604 299.502 74.5924 300.133 75.361 301.393C76.1436 302.64 76.5349 304.455 76.5349 306.838C76.5349 309.221 76.1436 311.043 75.361 312.304C74.5924 313.565 73.4604 314.195 71.9651 314.195C70.4838 314.195 69.3518 313.565 68.5692 312.304C67.7866 311.043 67.3953 309.221 67.3953 306.838C67.3953 304.469 67.7866 302.654 68.5692 301.393C69.3518 300.133 70.4838 299.502 71.9651 299.502ZM68.8836 306.838C68.8836 308.529 69.0374 309.852 69.3448 310.808L73.9985 301.601C73.5093 300.95 72.8315 300.624 71.9651 300.624C71.0008 300.624 70.2462 301.137 69.7012 302.162C69.1561 303.174 68.8836 304.732 68.8836 306.838ZM71.9651 313.052C72.9433 313.052 73.705 312.546 74.25 311.535C74.795 310.51 75.0675 308.944 75.0675 306.838C75.0675 305.051 74.8928 303.665 74.5435 302.682L69.8898 311.971C70.3929 312.692 71.0847 313.052 71.9651 313.052Z" fill="url(#paint13_linear_175_198)" fill-opacity="0.6"/>
<path d="M73.2228 336.637H76.3043V337.738H68.3176V336.637H71.8812V324.957L68.4853 326.973L67.8984 326.038L72.0909 323.461H73.2228V336.637Z" fill="url(#paint14_linear_175_198)" fill-opacity="0.6"/>
<path d="M71.9651 347.004C73.4604 347.004 74.5924 347.635 75.361 348.895C76.1436 350.142 76.5349 351.957 76.5349 354.34C76.5349 356.723 76.1436 358.545 75.361 359.806C74.5924 361.067 73.4604 361.697 71.9651 361.697C70.4838 361.697 69.3518 361.067 68.5692 359.806C67.7866 358.545 67.3953 356.723 67.3953 354.34C67.3953 351.971 67.7866 350.156 68.5692 348.895C69.3518 347.635 70.4838 347.004 71.9651 347.004ZM68.8836 354.34C68.8836 356.031 69.0374 357.354 69.3448 358.31L73.9985 349.103C73.5093 348.452 72.8315 348.126 71.9651 348.126C71.0008 348.126 70.2462 348.639 69.7012 349.664C69.1561 350.676 68.8836 352.234 68.8836 354.34ZM71.9651 360.554C72.9433 360.554 73.705 360.049 74.25 359.037C74.795 358.012 75.0675 356.446 75.0675 354.34C75.0675 352.553 74.8928 351.168 74.5435 350.184L69.8898 359.474C70.3929 360.194 71.0847 360.554 71.9651 360.554Z" fill="url(#paint15_linear_175_198)" fill-opacity="0.6"/>
<path d="M71.9651 370.755C73.4604 370.755 74.5924 371.386 75.361 372.646C76.1436 373.893 76.5349 375.708 76.5349 378.091C76.5349 380.474 76.1436 382.296 75.361 383.557C74.5924 384.818 73.4604 385.448 71.9651 385.448C70.4838 385.448 69.3518 384.818 68.5692 383.557C67.7866 382.296 67.3953 380.474 67.3953 378.091C67.3953 375.722 67.7866 373.907 68.5692 372.646C69.3518 371.386 70.4838 370.755 71.9651 370.755ZM68.8836 378.091C68.8836 379.782 69.0374 381.105 69.3448 382.061L73.9985 372.854C73.5093 372.203 72.8315 371.878 71.9651 371.878C71.0008 371.878 70.2462 372.39 69.7012 373.415C69.1561 374.427 68.8836 375.985 68.8836 378.091ZM71.9651 384.305C72.9433 384.305 73.705 383.8 74.25 382.788C74.795 381.763 75.0675 380.197 75.0675 378.091C75.0675 376.304 74.8928 374.919 74.5435 373.935L69.8898 383.225C70.3929 383.945 71.0847 384.305 71.9651 384.305Z" fill="url(#paint16_linear_175_198)" fill-opacity="0.6"/>
<path d="M73.2228 407.89H76.3043V408.992H68.3176V407.89H71.8812V396.21L68.4853 398.226L67.8984 397.291L72.0909 394.714H73.2228V407.89Z" fill="url(#paint17_linear_175_198)" fill-opacity="0.6"/>
<path d="M71.9651 418.257C73.4604 418.257 74.5924 418.888 75.361 420.149C76.1436 421.396 76.5349 423.211 76.5349 425.594C76.5349 427.977 76.1436 429.798 75.361 431.059C74.5924 432.32 73.4604 432.95 71.9651 432.95C70.4838 432.95 69.3518 432.32 68.5692 431.059C67.7866 429.798 67.3953 427.977 67.3953 425.594C67.3953 423.224 67.7866 421.409 68.5692 420.149C69.3518 418.888 70.4838 418.257 71.9651 418.257ZM68.8836 425.594C68.8836 427.284 69.0374 428.607 69.3448 429.563L73.9985 420.356C73.5093 419.705 72.8315 419.38 71.9651 419.38C71.0008 419.38 70.2462 419.892 69.7012 420.918C69.1561 421.929 68.8836 423.488 68.8836 425.594ZM71.9651 431.807C72.9433 431.807 73.705 431.302 74.25 430.29C74.795 429.265 75.0675 427.699 75.0675 425.594C75.0675 423.806 74.8928 422.421 74.5435 421.437L69.8898 430.727C70.3929 431.447 71.0847 431.807 71.9651 431.807Z" fill="url(#paint18_linear_175_198)" fill-opacity="0.6"/>
<path d="M73.2228 455.392H76.3043V456.494H68.3176V455.392H71.8812V443.713L68.4853 445.728L67.8984 444.793L72.0909 442.216H73.2228V455.392Z" fill="url(#paint19_linear_175_198)" fill-opacity="0.6"/>
<path d="M71.9651 465.76C73.4604 465.76 74.5924 466.39 75.361 467.651C76.1436 468.898 76.5349 470.713 76.5349 473.096C76.5349 475.479 76.1436 477.301 75.361 478.561C74.5924 479.822 73.4604 480.453 71.9651 480.453C70.4838 480.453 69.3518 479.822 68.5692 478.561C67.7866 477.301 67.3953 475.479 67.3953 473.096C67.3953 470.726 67.7866 468.911 68.5692 467.651C69.3518 466.39 70.4838 465.76 71.9651 465.76ZM68.8836 473.096C68.8836 474.786 69.0374 476.109 69.3448 477.065L73.9985 467.859C73.5093 467.207 72.8315 466.882 71.9651 466.882C71.0008 466.882 70.2462 467.394 69.7012 468.42C69.1561 469.431 68.8836 470.99 68.8836 473.096ZM71.9651 479.31C72.9433 479.31 73.705 478.804 74.25 477.792C74.795 476.767 75.0675 475.202 75.0675 473.096C75.0675 471.308 74.8928 469.923 74.5435 468.939L69.8898 478.229C70.3929 478.949 71.0847 479.31 71.9651 479.31Z" fill="url(#paint20_linear_175_198)" fill-opacity="0.6"/>
<path d="M71.9651 489.511C73.4604 489.511 74.5924 490.141 75.361 491.402C76.1436 492.649 76.5349 494.464 76.5349 496.847C76.5349 499.23 76.1436 501.052 75.361 502.312C74.5924 503.573 73.4604 504.204 71.9651 504.204C70.4838 504.204 69.3518 503.573 68.5692 502.312C67.7866 501.052 67.3953 499.23 67.3953 496.847C67.3953 494.478 67.7866 492.663 68.5692 491.402C69.3518 490.141 70.4838 489.511 71.9651 489.511ZM68.8836 496.847C68.8836 498.537 69.0374 499.86 69.3448 500.816L73.9985 491.61C73.5093 490.958 72.8315 490.633 71.9651 490.633C71.0008 490.633 70.2462 491.145 69.7012 492.171C69.1561 493.182 68.8836 494.741 68.8836 496.847ZM71.9651 503.061C72.9433 503.061 73.705 502.555 74.25 501.543C74.795 500.518 75.0675 498.953 75.0675 496.847C75.0675 495.059 74.8928 493.674 74.5435 492.69L69.8898 501.98C70.3929 502.7 71.0847 503.061 71.9651 503.061Z" fill="url(#paint21_linear_175_198)" fill-opacity="0.6"/>
<path d="M73.2228 526.645H76.3043V527.747H68.3176V526.645H71.8812V514.966L68.4853 516.982L67.8984 516.046L72.0909 513.469H73.2228V526.645Z" fill="url(#paint22_linear_175_198)" fill-opacity="0.6"/>
<path d="M71.9651 537.013C73.4604 537.013 74.5924 537.643 75.361 538.904C76.1436 540.151 76.5349 541.966 76.5349 544.349C76.5349 546.732 76.1436 548.554 75.361 549.815C74.5924 551.075 73.4604 551.706 71.9651 551.706C70.4838 551.706 69.3518 551.075 68.5692 549.815C67.7866 548.554 67.3953 546.732 67.3953 544.349C67.3953 541.98 67.7866 540.165 68.5692 538.904C69.3518 537.643 70.4838 537.013 71.9651 537.013ZM68.8836 544.349C68.8836 546.039 69.0374 547.362 69.3448 548.318L73.9985 539.112C73.5093 538.461 72.8315 538.135 71.9651 538.135C71.0008 538.135 70.2462 538.648 69.7012 539.673C69.1561 540.684 68.8836 542.243 68.8836 544.349ZM71.9651 550.563C72.9433 550.563 73.705 550.057 74.25 549.046C74.795 548.02 75.0675 546.455 75.0675 544.349C75.0675 542.562 74.8928 541.176 74.5435 540.192L69.8898 549.482C70.3929 550.202 71.0847 550.563 71.9651 550.563Z" fill="url(#paint23_linear_175_198)" fill-opacity="0.6"/>
<path d="M73.2228 574.148H76.3043V575.249H68.3176V574.148H71.8812V562.468L68.4853 564.484L67.8984 563.549L72.0909 560.972H73.2228V574.148Z" fill="url(#paint24_linear_175_198)" fill-opacity="0.6"/>
<path d="M73.2228 597.899H76.3043V599H68.3176V597.899H71.8812V586.219L68.4853 588.235L67.8984 587.3L72.0909 584.723H73.2228V597.899Z" fill="url(#paint25_linear_175_198)" fill-opacity="0.6"/>
<path d="M13.5698 323.253C15.0651 323.253 16.1971 323.884 16.9657 325.144C17.7483 326.391 18.1396 328.206 18.1396 330.589C18.1396 332.972 17.7483 334.794 16.9657 336.055C16.1971 337.316 15.0651 337.946 13.5698 337.946C12.0885 337.946 10.9565 337.316 10.1739 336.055C9.3913 334.794 9 332.972 9 330.589C9 328.22 9.3913 326.405 10.1739 325.144C10.9565 323.884 12.0885 323.253 13.5698 323.253ZM10.4883 330.589C10.4883 332.28 10.6421 333.603 10.9495 334.559L15.6032 325.352C15.114 324.701 14.4363 324.375 13.5698 324.375C12.6055 324.375 11.8509 324.888 11.3059 325.913C10.7608 326.925 10.4883 328.483 10.4883 330.589ZM13.5698 336.803C14.5481 336.803 15.3097 336.297 15.8547 335.286C16.3997 334.261 16.6722 332.695 16.6722 330.589C16.6722 328.802 16.4976 327.417 16.1482 326.433L11.4945 335.722C11.9976 336.443 12.6894 336.803 13.5698 336.803Z" fill="url(#paint26_linear_175_198)" fill-opacity="0.6"/>
<path d="M13.5698 347.004C15.0651 347.004 16.1971 347.635 16.9657 348.895C17.7483 350.142 18.1396 351.957 18.1396 354.34C18.1396 356.723 17.7483 358.545 16.9657 359.806C16.1971 361.067 15.0651 361.697 13.5698 361.697C12.0885 361.697 10.9565 361.067 10.1739 359.806C9.3913 358.545 9 356.723 9 354.34C9 351.971 9.3913 350.156 10.1739 348.895C10.9565 347.635 12.0885 347.004 13.5698 347.004ZM10.4883 354.34C10.4883 356.031 10.6421 357.354 10.9495 358.31L15.6032 349.103C15.114 348.452 14.4363 348.126 13.5698 348.126C12.6055 348.126 11.8509 348.639 11.3059 349.664C10.7608 350.676 10.4883 352.234 10.4883 354.34ZM13.5698 360.554C14.5481 360.554 15.3097 360.049 15.8547 359.037C16.3997 358.012 16.6722 356.446 16.6722 354.34C16.6722 352.553 16.4976 351.168 16.1482 350.184L11.4945 359.474C11.9976 360.194 12.6894 360.554 13.5698 360.554Z" fill="url(#paint27_linear_175_198)" fill-opacity="0.6"/>
<path d="M14.8276 384.139H17.909V385.24H9.92235V384.139H13.486V372.459L10.09 374.475L9.5031 373.54L13.6956 370.963H14.8276V384.139Z" fill="url(#paint28_linear_175_198)" fill-opacity="0.6"/>
<path d="M13.5698 394.506C15.0651 394.506 16.1971 395.137 16.9657 396.398C17.7483 397.644 18.1396 399.459 18.1396 401.842C18.1396 404.225 17.7483 406.047 16.9657 407.308C16.1971 408.569 15.0651 409.199 13.5698 409.199C12.0885 409.199 10.9565 408.569 10.1739 407.308C9.3913 406.047 9 404.225 9 401.842C9 399.473 9.3913 397.658 10.1739 396.398C10.9565 395.137 12.0885 394.506 13.5698 394.506ZM10.4883 401.842C10.4883 403.533 10.6421 404.856 10.9495 405.812L15.6032 396.605C15.114 395.954 14.4363 395.629 13.5698 395.629C12.6055 395.629 11.8509 396.141 11.3059 397.166C10.7608 398.178 10.4883 399.737 10.4883 401.842ZM13.5698 408.056C14.5481 408.056 15.3097 407.551 15.8547 406.539C16.3997 405.514 16.6722 403.948 16.6722 401.842C16.6722 400.055 16.4976 398.67 16.1482 397.686L11.4945 406.976C11.9976 407.696 12.6894 408.056 13.5698 408.056Z" fill="url(#paint29_linear_175_198)" fill-opacity="0.6"/>
<path d="M14.8276 431.641H17.909V432.743H9.92235V431.641H13.486V419.962L10.09 421.977L9.5031 421.042L13.6956 418.465H14.8276V431.641Z" fill="url(#paint30_linear_175_198)" fill-opacity="0.6"/>
<path d="M14.8276 455.392H17.909V456.494H9.92235V455.392H13.486V443.713L10.09 445.728L9.5031 444.793L13.6956 442.216H14.8276V455.392Z" fill="url(#paint31_linear_175_198)" fill-opacity="0.6"/>
<path d="M53.7577 289.135H56.8392V290.236H48.8525V289.135H52.4162V277.455L49.0202 279.471L48.4333 278.536L52.6258 275.959H53.7577V289.135Z" fill="url(#paint32_linear_175_198)" fill-opacity="0.6"/>
<path d="M52.5 299.502C53.9953 299.502 55.1273 300.133 55.8959 301.393C56.6785 302.64 57.0698 304.455 57.0698 306.838C57.0698 309.221 56.6785 311.043 55.8959 312.304C55.1273 313.565 53.9953 314.195 52.5 314.195C51.0187 314.195 49.8867 313.565 49.1041 312.304C48.3215 311.043 47.9302 309.221 47.9302 306.838C47.9302 304.469 48.3215 302.654 49.1041 301.393C49.8867 300.133 51.0187 299.502 52.5 299.502ZM49.4185 306.838C49.4185 308.529 49.5723 309.852 49.8797 310.808L54.5334 301.601C54.0442 300.95 53.3664 300.624 52.5 300.624C51.5357 300.624 50.7811 301.137 50.2361 302.162C49.691 303.174 49.4185 304.732 49.4185 306.838ZM52.5 313.052C53.4782 313.052 54.2399 312.546 54.7849 311.535C55.3299 310.51 55.6024 308.944 55.6024 306.838C55.6024 305.051 55.4277 303.665 55.0784 302.682L50.4247 311.971C50.9278 312.692 51.6196 313.052 52.5 313.052Z" fill="url(#paint33_linear_175_198)" fill-opacity="0.6"/>
<path d="M53.7577 336.637H56.8392V337.738H48.8525V336.637H52.4162V324.957L49.0202 326.973L48.4333 326.038L52.6258 323.461H53.7577V336.637Z" fill="url(#paint34_linear_175_198)" fill-opacity="0.6"/>
<path d="M53.7577 360.388H56.8392V361.489H48.8525V360.388H52.4162V348.708L49.0202 350.724L48.4333 349.789L52.6258 347.212H53.7577V360.388Z" fill="url(#paint35_linear_175_198)" fill-opacity="0.6"/>
<path d="M52.5 370.755C53.9953 370.755 55.1273 371.386 55.8959 372.646C56.6785 373.893 57.0698 375.708 57.0698 378.091C57.0698 380.474 56.6785 382.296 55.8959 383.557C55.1273 384.818 53.9953 385.448 52.5 385.448C51.0187 385.448 49.8867 384.818 49.1041 383.557C48.3215 382.296 47.9302 380.474 47.9302 378.091C47.9302 375.722 48.3215 373.907 49.1041 372.646C49.8867 371.386 51.0187 370.755 52.5 370.755ZM49.4185 378.091C49.4185 379.782 49.5723 381.105 49.8797 382.061L54.5334 372.854C54.0442 372.203 53.3664 371.878 52.5 371.878C51.5357 371.878 50.7811 372.39 50.2361 373.415C49.691 374.427 49.4185 375.985 49.4185 378.091ZM52.5 384.305C53.4782 384.305 54.2399 383.8 54.7849 382.788C55.3299 381.763 55.6024 380.197 55.6024 378.091C55.6024 376.304 55.4277 374.919 55.0784 373.935L50.4247 383.225C50.9278 383.945 51.6196 384.305 52.5 384.305Z" fill="url(#paint36_linear_175_198)" fill-opacity="0.6"/>
<path d="M53.7577 407.89H56.8392V408.992H48.8525V407.89H52.4162V396.21L49.0202 398.226L48.4333 397.291L52.6258 394.714H53.7577V407.89Z" fill="url(#paint37_linear_175_198)" fill-opacity="0.6"/>
<path d="M53.7577 431.641H56.8392V432.743H48.8525V431.641H52.4162V419.962L49.0202 421.977L48.4333 421.042L52.6258 418.465H53.7577V431.641Z" fill="url(#paint38_linear_175_198)" fill-opacity="0.6"/>
<path d="M52.5 442.008C53.9953 442.008 55.1273 442.639 55.8959 443.9C56.6785 445.147 57.0698 446.962 57.0698 449.345C57.0698 451.728 56.6785 453.549 55.8959 454.81C55.1273 456.071 53.9953 456.701 52.5 456.701C51.0187 456.701 49.8867 456.071 49.1041 454.81C48.3215 453.549 47.9302 451.728 47.9302 449.345C47.9302 446.975 48.3215 445.16 49.1041 443.9C49.8867 442.639 51.0187 442.008 52.5 442.008ZM49.4185 449.345C49.4185 451.035 49.5723 452.358 49.8797 453.314L54.5334 444.107C54.0442 443.456 53.3664 443.131 52.5 443.131C51.5357 443.131 50.7811 443.643 50.2361 444.669C49.691 445.68 49.4185 447.239 49.4185 449.345ZM52.5 455.558C53.4782 455.558 54.2399 455.053 54.7849 454.041C55.3299 453.016 55.6024 451.451 55.6024 449.345C55.6024 447.557 55.4277 446.172 55.0784 445.188L50.4247 454.478C50.9278 455.198 51.6196 455.558 52.5 455.558Z" fill="url(#paint39_linear_175_198)" fill-opacity="0.6"/>
<path d="M53.7577 479.143H56.8392V480.245H48.8525V479.143H52.4162V467.464L49.0202 469.48L48.4333 468.544L52.6258 465.967H53.7577V479.143Z" fill="url(#paint40_linear_175_198)" fill-opacity="0.6"/>
<path d="M52.5 489.511C53.9953 489.511 55.1273 490.141 55.8959 491.402C56.6785 492.649 57.0698 494.464 57.0698 496.847C57.0698 499.23 56.6785 501.052 55.8959 502.312C55.1273 503.573 53.9953 504.204 52.5 504.204C51.0187 504.204 49.8867 503.573 49.1041 502.312C48.3215 501.052 47.9302 499.23 47.9302 496.847C47.9302 494.478 48.3215 492.663 49.1041 491.402C49.8867 490.141 51.0187 489.511 52.5 489.511ZM49.4185 496.847C49.4185 498.537 49.5723 499.86 49.8797 500.816L54.5334 491.61C54.0442 490.958 53.3664 490.633 52.5 490.633C51.5357 490.633 50.7811 491.145 50.2361 492.171C49.691 493.182 49.4185 494.741 49.4185 496.847ZM52.5 503.061C53.4782 503.061 54.2399 502.555 54.7849 501.543C55.3299 500.518 55.6024 498.953 55.6024 496.847C55.6024 495.059 55.4277 493.674 55.0784 492.69L50.4247 501.98C50.9278 502.7 51.6196 503.061 52.5 503.061Z" fill="url(#paint41_linear_175_198)" fill-opacity="0.6"/>
<path d="M91.4302 275.751C92.9255 275.751 94.0575 276.381 94.8261 277.642C95.6087 278.889 96 280.704 96 283.087C96 285.47 95.6087 287.292 94.8261 288.553C94.0575 289.814 92.9255 290.444 91.4302 290.444C89.9489 290.444 88.8169 289.814 88.0343 288.553C87.2517 287.292 86.8604 285.47 86.8604 283.087C86.8604 280.718 87.2517 278.903 88.0343 277.642C88.8169 276.381 89.9489 275.751 91.4302 275.751ZM88.3487 283.087C88.3487 284.777 88.5024 286.101 88.8099 287.057L93.4636 277.85C92.9744 277.199 92.2966 276.873 91.4302 276.873C90.4659 276.873 89.7113 277.386 89.1663 278.411C88.6212 279.423 88.3487 280.981 88.3487 283.087ZM91.4302 289.301C92.4084 289.301 93.1701 288.795 93.7151 287.784C94.2601 286.759 94.5326 285.193 94.5326 283.087C94.5326 281.3 94.3579 279.914 94.0086 278.931L89.3549 288.22C89.858 288.941 90.5498 289.301 91.4302 289.301Z" fill="url(#paint42_linear_175_198)" fill-opacity="0.6"/>
<path d="M92.6879 312.886H95.7694V313.987H87.7827V312.886H91.3463V301.206L87.9504 303.222L87.3635 302.287L91.556 299.71H92.6879V312.886Z" fill="url(#paint43_linear_175_198)" fill-opacity="0.6"/>
<path d="M92.6879 336.637H95.7694V337.738H87.7827V336.637H91.3463V324.957L87.9504 326.973L87.3635 326.038L91.556 323.461H92.6879V336.637Z" fill="url(#paint44_linear_175_198)" fill-opacity="0.6"/>
<path d="M91.4302 347.004C92.9255 347.004 94.0575 347.635 94.8261 348.895C95.6087 350.142 96 351.957 96 354.34C96 356.723 95.6087 358.545 94.8261 359.806C94.0575 361.067 92.9255 361.697 91.4302 361.697C89.9489 361.697 88.8169 361.067 88.0343 359.806C87.2517 358.545 86.8604 356.723 86.8604 354.34C86.8604 351.971 87.2517 350.156 88.0343 348.895C88.8169 347.635 89.9489 347.004 91.4302 347.004ZM88.3487 354.34C88.3487 356.031 88.5024 357.354 88.8099 358.31L93.4636 349.103C92.9744 348.452 92.2966 348.126 91.4302 348.126C90.4659 348.126 89.7113 348.639 89.1663 349.664C88.6212 350.676 88.3487 352.234 88.3487 354.34ZM91.4302 360.554C92.4084 360.554 93.1701 360.049 93.7151 359.037C94.2601 358.012 94.5326 356.446 94.5326 354.34C94.5326 352.553 94.3579 351.168 94.0086 350.184L89.3549 359.474C89.858 360.194 90.5498 360.554 91.4302 360.554Z" fill="url(#paint45_linear_175_198)" fill-opacity="0.6"/>
<path d="M91.4302 370.755C92.9255 370.755 94.0575 371.386 94.8261 372.646C95.6087 373.893 96 375.708 96 378.091C96 380.474 95.6087 382.296 94.8261 383.557C94.0575 384.818 92.9255 385.448 91.4302 385.448C89.9489 385.448 88.8169 384.818 88.0343 383.557C87.2517 382.296 86.8604 380.474 86.8604 378.091C86.8604 375.722 87.2517 373.907 88.0343 372.646C88.8169 371.386 89.9489 370.755 91.4302 370.755ZM88.3487 378.091C88.3487 379.782 88.5024 381.105 88.8099 382.061L93.4636 372.854C92.9744 372.203 92.2966 371.878 91.4302 371.878C90.4659 371.878 89.7113 372.39 89.1663 373.415C88.6212 374.427 88.3487 375.985 88.3487 378.091ZM91.4302 384.305C92.4084 384.305 93.1701 383.8 93.7151 382.788C94.2601 381.763 94.5326 380.197 94.5326 378.091C94.5326 376.304 94.3579 374.919 94.0086 373.935L89.3549 383.225C89.858 383.945 90.5498 384.305 91.4302 384.305Z" fill="url(#paint46_linear_175_198)" fill-opacity="0.6"/>
<g opacity="0.6">
<path d="M919.93 -48C921.356 -48 922.436 -47.395 923.17 -46.1851C923.916 -44.9885 924.29 -43.2468 924.29 -40.9599C924.29 -38.673 923.916 -36.9246 923.17 -35.7147C922.436 -34.5048 921.356 -33.8998 919.93 -33.8998C918.517 -33.8998 917.437 -34.5048 916.69 -35.7147C915.943 -36.9246 915.57 -38.673 915.57 -40.9599C915.57 -43.2335 915.943 -44.9752 916.69 -46.1851C917.437 -47.395 918.517 -48 919.93 -48ZM916.99 -40.9599C916.99 -39.3378 917.137 -38.068 917.43 -37.1506L921.87 -45.9857C921.403 -46.6106 920.756 -46.923 919.93 -46.923C919.01 -46.923 918.29 -46.4311 917.77 -45.4472C917.25 -44.4766 916.99 -42.9808 916.99 -40.9599ZM919.93 -34.9967C920.863 -34.9967 921.59 -35.482 922.11 -36.4526C922.63 -37.4365 922.89 -38.9389 922.89 -40.9599C922.89 -42.675 922.723 -44.0046 922.39 -44.9486L917.95 -36.0338C918.43 -35.3424 919.09 -34.9967 919.93 -34.9967Z" fill="url(#paint47_linear_175_198)"/>
<path d="M921.13 -12.3635H924.07V-11.3064H916.45V-12.3635H919.85V-23.5718L916.61 -21.6373L916.05 -22.5347L920.05 -25.0078H921.13V-12.3635Z" fill="url(#paint48_linear_175_198)"/>
<path d="M919.93 -2.41439C921.356 -2.41439 922.436 -1.80943 923.17 -0.599515C923.916 0.597107 924.29 2.33886 924.29 4.62573C924.29 6.91261 923.916 8.66101 923.17 9.87093C922.436 11.0808 921.356 11.6858 919.93 11.6858C918.517 11.6858 917.437 11.0808 916.69 9.87093C915.943 8.66101 915.57 6.91261 915.57 4.62573C915.57 2.35215 915.943 0.610402 916.69 -0.599515C917.437 -1.80943 918.517 -2.41439 919.93 -2.41439ZM916.99 4.62573C916.99 6.24782 917.137 7.51757 917.43 8.43498L921.87 -0.400079C921.403 -1.02498 920.756 -1.33744 919.93 -1.33744C919.01 -1.33744 918.29 -0.845489 917.77 0.138401C917.25 1.10899 916.99 2.60477 916.99 4.62573ZM919.93 10.5889C920.863 10.5889 921.59 10.1036 922.11 9.13301C922.63 8.14912 922.89 6.6467 922.89 4.62573C922.89 2.91057 922.723 1.58099 922.39 0.636991L917.95 9.55183C918.43 10.2432 919.09 10.5889 919.93 10.5889Z" fill="url(#paint49_linear_175_198)"/>
<path d="M921.13 33.2221H924.07V34.2792H916.45V33.2221H919.85V22.0138L916.61 23.9483L916.05 23.0509L920.05 20.5778H921.13V33.2221Z" fill="url(#paint50_linear_175_198)"/>
<path d="M921.13 56.015H924.07V57.072H916.45V56.015H919.85V44.8066L916.61 46.7411L916.05 45.8437L920.05 43.3706H921.13V56.015Z" fill="url(#paint51_linear_175_198)"/>
<path d="M919.93 65.964C921.356 65.964 922.436 66.569 923.17 67.7789C923.916 68.9755 924.29 70.7173 924.29 73.0041C924.29 75.291 923.916 77.0394 923.17 78.2493C922.436 79.4593 921.356 80.0642 919.93 80.0642C918.517 80.0642 917.437 79.4593 916.69 78.2493C915.943 77.0394 915.57 75.291 915.57 73.0041C915.57 70.7306 915.943 68.9888 916.69 67.7789C917.437 66.569 918.517 65.964 919.93 65.964ZM916.99 73.0041C916.99 74.6262 917.137 75.896 917.43 76.8134L921.87 67.9783C921.403 67.3534 920.756 67.041 919.93 67.041C919.01 67.041 918.29 67.5329 917.77 68.5168C917.25 69.4874 916.99 70.9832 916.99 73.0041ZM919.93 78.9673C920.863 78.9673 921.59 78.482 922.11 77.5114C922.63 76.5275 922.89 75.0251 922.89 73.0041C922.89 71.289 922.723 69.9594 922.39 69.0154L917.95 77.9302C918.43 78.6216 919.09 78.9673 919.93 78.9673Z" fill="url(#paint52_linear_175_198)"/>
<path d="M921.13 101.601H924.07V102.658H916.45V101.601H919.85V90.3922L916.61 92.3267L916.05 91.4293L920.05 88.9562H921.13V101.601Z" fill="url(#paint53_linear_175_198)"/>
<path d="M919.93 111.55C921.356 111.55 922.436 112.155 923.17 113.365C923.916 114.561 924.29 116.303 924.29 118.59C924.29 120.877 923.916 122.625 923.17 123.835C922.436 125.045 921.356 125.65 919.93 125.65C918.517 125.65 917.437 125.045 916.69 123.835C915.943 122.625 915.57 120.877 915.57 118.59C915.57 116.316 915.943 114.574 916.69 113.365C917.437 112.155 918.517 111.55 919.93 111.55ZM916.99 118.59C916.99 120.212 917.137 121.482 917.43 122.399L921.87 113.564C921.403 112.939 920.756 112.627 919.93 112.627C919.01 112.627 918.29 113.119 917.77 114.102C917.25 115.073 916.99 116.569 916.99 118.59ZM919.93 124.553C920.863 124.553 921.59 124.068 922.11 123.097C922.63 122.113 922.89 120.611 922.89 118.59C922.89 116.875 922.723 115.545 922.39 114.601L917.95 123.516C918.43 124.207 919.09 124.553 919.93 124.553Z" fill="url(#paint54_linear_175_198)"/>
<path d="M919.93 134.342C921.356 134.342 922.436 134.947 923.17 136.157C923.916 137.354 924.29 139.096 924.29 141.383C924.29 143.669 923.916 145.418 923.17 146.628C922.436 147.838 921.356 148.443 919.93 148.443C918.517 148.443 917.437 147.838 916.69 146.628C915.943 145.418 915.57 143.669 915.57 141.383C915.57 139.109 915.943 137.367 916.69 136.157C917.437 134.947 918.517 134.342 919.93 134.342ZM916.99 141.383C916.99 143.005 917.137 144.274 917.43 145.192L921.87 136.357C921.403 135.732 920.756 135.419 919.93 135.419C919.01 135.419 918.29 135.911 917.77 136.895C917.25 137.866 916.99 139.362 916.99 141.383ZM919.93 147.346C920.863 147.346 921.59 146.86 922.11 145.89C922.63 144.906 922.89 143.404 922.89 141.383C922.89 139.667 922.723 138.338 922.39 137.394L917.95 146.309C918.43 147 919.09 147.346 919.93 147.346Z" fill="url(#paint55_linear_175_198)"/>
<path d="M921.13 169.979H924.07V171.036H916.45V169.979H919.85V158.771L916.61 160.705L916.05 159.808L920.05 157.335H921.13V169.979Z" fill="url(#paint56_linear_175_198)"/>
<path d="M919.93 179.928C921.356 179.928 922.436 180.533 923.17 181.743C923.916 182.94 924.29 184.681 924.29 186.968C924.29 189.255 923.916 191.003 923.17 192.213C922.436 193.423 921.356 194.028 919.93 194.028C918.517 194.028 917.437 193.423 916.69 192.213C915.943 191.003 915.57 189.255 915.57 186.968C915.57 184.695 915.943 182.953 916.69 181.743C917.437 180.533 918.517 179.928 919.93 179.928ZM916.99 186.968C916.99 188.59 917.137 189.86 917.43 190.777L921.87 181.942C921.403 181.317 920.756 181.005 919.93 181.005C919.01 181.005 918.29 181.497 917.77 182.481C917.25 183.451 916.99 184.947 916.99 186.968ZM919.93 192.931C920.863 192.931 921.59 192.446 922.11 191.475C922.63 190.492 922.89 188.989 922.89 186.968C922.89 185.253 922.723 183.923 922.39 182.979L917.95 191.894C918.43 192.586 919.09 192.931 919.93 192.931Z" fill="url(#paint57_linear_175_198)"/>
<path d="M921.13 215.565H924.07V216.622H916.45V215.565H919.85V204.356L916.61 206.291L916.05 205.393L920.05 202.92H921.13V215.565Z" fill="url(#paint58_linear_175_198)"/>
<path d="M921.13 238.357H924.07V239.414H916.45V238.357H919.85V227.149L916.61 229.084L916.05 228.186L920.05 225.713H921.13V238.357Z" fill="url(#paint59_linear_175_198)"/>
<path d="M957.07 -2.41439C958.497 -2.41439 959.577 -1.80943 960.31 -0.599515C961.057 0.597107 961.43 2.33886 961.43 4.62573C961.43 6.91261 961.057 8.66101 960.31 9.87093C959.577 11.0808 958.497 11.6858 957.07 11.6858C955.657 11.6858 954.577 11.0808 953.83 9.87093C953.084 8.66101 952.71 6.91261 952.71 4.62573C952.71 2.35215 953.084 0.610402 953.83 -0.599515C954.577 -1.80943 955.657 -2.41439 957.07 -2.41439ZM954.13 4.62573C954.13 6.24782 954.277 7.51757 954.57 8.43498L959.01 -0.400079C958.543 -1.02498 957.897 -1.33744 957.07 -1.33744C956.15 -1.33744 955.43 -0.845489 954.91 0.138401C954.39 1.10899 954.13 2.60477 954.13 4.62573ZM957.07 10.5889C958.003 10.5889 958.73 10.1036 959.25 9.13301C959.77 8.14912 960.03 6.6467 960.03 4.62573C960.03 2.91057 959.863 1.58099 959.53 0.636991L955.09 9.55183C955.57 10.2432 956.23 10.5889 957.07 10.5889Z" fill="url(#paint60_linear_175_198)"/>
<path d="M958.27 33.2221H961.21V34.2792H953.59V33.2221H956.99V22.0138L953.75 23.9483L953.19 23.0509L957.19 20.5778H958.27V33.2221Z" fill="url(#paint61_linear_175_198)"/>
<path d="M957.07 43.1712C958.497 43.1712 959.577 43.7762 960.31 44.9861C961.057 46.1827 961.43 47.9245 961.43 50.2113C961.43 52.4982 961.057 54.2466 960.31 55.4565C959.577 56.6664 958.497 57.2714 957.07 57.2714C955.657 57.2714 954.577 56.6664 953.83 55.4565C953.084 54.2466 952.71 52.4982 952.71 50.2113C952.71 47.9378 953.084 46.196 953.83 44.9861C954.577 43.7762 955.657 43.1712 957.07 43.1712ZM954.13 50.2113C954.13 51.8334 954.277 53.1032 954.57 54.0206L959.01 45.1855C958.543 44.5606 957.897 44.2482 957.07 44.2482C956.15 44.2482 955.43 44.7401 954.91 45.724C954.39 46.6946 954.13 48.1904 954.13 50.2113ZM957.07 56.1745C958.003 56.1745 958.73 55.6892 959.25 54.7186C959.77 53.7347 960.03 52.2323 960.03 50.2113C960.03 48.4962 959.863 47.1666 959.53 46.2226L955.09 55.1374C955.57 55.8288 956.23 56.1745 957.07 56.1745Z" fill="url(#paint62_linear_175_198)"/>
<path d="M957.07 65.964C958.497 65.964 959.577 66.569 960.31 67.7789C961.057 68.9755 961.43 70.7173 961.43 73.0041C961.43 75.291 961.057 77.0394 960.31 78.2493C959.577 79.4593 958.497 80.0642 957.07 80.0642C955.657 80.0642 954.577 79.4593 953.83 78.2493C953.084 77.0394 952.71 75.291 952.71 73.0041C952.71 70.7306 953.084 68.9888 953.83 67.7789C954.577 66.569 955.657 65.964 957.07 65.964ZM954.13 73.0041C954.13 74.6262 954.277 75.896 954.57 76.8134L959.01 67.9783C958.543 67.3534 957.897 67.041 957.07 67.041C956.15 67.041 955.43 67.5329 954.91 68.5168C954.39 69.4874 954.13 70.9832 954.13 73.0041ZM957.07 78.9673C958.003 78.9673 958.73 78.482 959.25 77.5114C959.77 76.5275 960.03 75.0251 960.03 73.0041C960.03 71.289 959.863 69.9594 959.53 69.0154L955.09 77.9302C955.57 78.6216 956.23 78.9673 957.07 78.9673Z" fill="url(#paint63_linear_175_198)"/>
<path d="M958.27 101.601H961.21V102.658H953.59V101.601H956.99V90.3922L953.75 92.3267L953.19 91.4293L957.19 88.9562H958.27V101.601Z" fill="url(#paint64_linear_175_198)"/>
<path d="M957.07 111.55C958.497 111.55 959.577 112.155 960.31 113.365C961.057 114.561 961.43 116.303 961.43 118.59C961.43 120.877 961.057 122.625 960.31 123.835C959.577 125.045 958.497 125.65 957.07 125.65C955.657 125.65 954.577 125.045 953.83 123.835C953.084 122.625 952.71 120.877 952.71 118.59C952.71 116.316 953.084 114.574 953.83 113.365C954.577 112.155 955.657 111.55 957.07 111.55ZM954.13 118.59C954.13 120.212 954.277 121.482 954.57 122.399L959.01 113.564C958.543 112.939 957.897 112.627 957.07 112.627C956.15 112.627 955.43 113.119 954.91 114.102C954.39 115.073 954.13 116.569 954.13 118.59ZM957.07 124.553C958.003 124.553 958.73 124.068 959.25 123.097C959.77 122.113 960.03 120.611 960.03 118.59C960.03 116.875 959.863 115.545 959.53 114.601L955.09 123.516C955.57 124.207 956.23 124.553 957.07 124.553Z" fill="url(#paint65_linear_175_198)"/>
<path d="M958.27 147.186H961.21V148.243H953.59V147.186H956.99V135.978L953.75 137.912L953.19 137.015L957.19 134.542H958.27V147.186Z" fill="url(#paint66_linear_175_198)"/>
<path d="M957.07 157.135C958.497 157.135 959.577 157.74 960.31 158.95C961.057 160.147 961.43 161.888 961.43 164.175C961.43 166.462 961.057 168.211 960.31 169.421C959.577 170.63 958.497 171.235 957.07 171.235C955.657 171.235 954.577 170.63 953.83 169.421C953.084 168.211 952.71 166.462 952.71 164.175C952.71 161.902 953.084 160.16 953.83 158.95C954.577 157.74 955.657 157.135 957.07 157.135ZM954.13 164.175C954.13 165.797 954.277 167.067 954.57 167.985L959.01 159.15C958.543 158.525 957.897 158.212 957.07 158.212C956.15 158.212 955.43 158.704 954.91 159.688C954.39 160.659 954.13 162.154 954.13 164.175ZM957.07 170.139C958.003 170.139 958.73 169.653 959.25 168.683C959.77 167.699 960.03 166.196 960.03 164.175C960.03 162.46 959.863 161.131 959.53 160.187L955.09 169.101C955.57 169.793 956.23 170.139 957.07 170.139Z" fill="url(#paint67_linear_175_198)"/>
<path d="M957.07 179.928C958.497 179.928 959.577 180.533 960.31 181.743C961.057 182.94 961.43 184.681 961.43 186.968C961.43 189.255 961.057 191.003 960.31 192.213C959.577 193.423 958.497 194.028 957.07 194.028C955.657 194.028 954.577 193.423 953.83 192.213C953.084 191.003 952.71 189.255 952.71 186.968C952.71 184.695 953.084 182.953 953.83 181.743C954.577 180.533 955.657 179.928 957.07 179.928ZM954.13 186.968C954.13 188.59 954.277 189.86 954.57 190.777L959.01 181.942C958.543 181.317 957.897 181.005 957.07 181.005C956.15 181.005 955.43 181.497 954.91 182.481C954.39 183.451 954.13 184.947 954.13 186.968ZM957.07 192.931C958.003 192.931 958.73 192.446 959.25 191.475C959.77 190.492 960.03 188.989 960.03 186.968C960.03 185.253 959.863 183.923 959.53 182.979L955.09 191.894C955.57 192.586 956.23 192.931 957.07 192.931Z" fill="url(#paint68_linear_175_198)"/>
<path d="M958.27 215.565H961.21V216.622H953.59V215.565H956.99V204.356L953.75 206.291L953.19 205.393L957.19 202.92H958.27V215.565Z" fill="url(#paint69_linear_175_198)"/>
<path d="M957.07 225.514C958.497 225.514 959.577 226.119 960.31 227.329C961.057 228.525 961.43 230.267 961.43 232.554C961.43 234.841 961.057 236.589 960.31 237.799C959.577 239.009 958.497 239.614 957.07 239.614C955.657 239.614 954.577 239.009 953.83 237.799C953.084 236.589 952.71 234.841 952.71 232.554C952.71 230.28 953.084 228.538 953.83 227.329C954.577 226.119 955.657 225.514 957.07 225.514ZM954.13 232.554C954.13 234.176 954.277 235.446 954.57 236.363L959.01 227.528C958.543 226.903 957.897 226.591 957.07 226.591C956.15 226.591 955.43 227.083 954.91 228.066C954.39 229.037 954.13 230.533 954.13 232.554ZM957.07 238.517C958.003 238.517 958.73 238.032 959.25 237.061C959.77 236.077 960.03 234.575 960.03 232.554C960.03 230.839 959.863 229.509 959.53 228.565L955.09 237.48C955.57 238.171 956.23 238.517 957.07 238.517Z" fill="url(#paint70_linear_175_198)"/>
<path d="M958.27 261.15H961.21V262.207H953.59V261.15H956.99V249.942L953.75 251.876L953.19 250.979L957.19 248.506H958.27V261.15Z" fill="url(#paint71_linear_175_198)"/>
<path d="M958.27 283.943H961.21V285H953.59V283.943H956.99V272.735L953.75 274.669L953.19 273.772L957.19 271.299H958.27V283.943Z" fill="url(#paint72_linear_175_198)"/>
<path d="M901.36 20.3784C902.786 20.3784 903.866 20.9834 904.599 22.1933C905.346 23.3899 905.719 25.1317 905.719 27.4185C905.719 29.7054 905.346 31.4538 904.599 32.6637C903.866 33.8736 902.786 34.4786 901.36 34.4786C899.946 34.4786 898.867 33.8736 898.12 32.6637C897.373 31.4538 897 29.7054 897 27.4185C897 25.145 897.373 23.4032 898.12 22.1933C898.867 20.9834 899.946 20.3784 901.36 20.3784ZM898.42 27.4185C898.42 29.0406 898.567 30.3104 898.86 31.2278L903.3 22.3927C902.833 21.7678 902.186 21.4554 901.36 21.4554C900.44 21.4554 899.72 21.9473 899.2 22.9312C898.68 23.9018 898.42 25.3976 898.42 27.4185ZM901.36 33.3817C902.293 33.3817 903.02 32.8964 903.54 31.9258C904.06 30.9419 904.319 29.4395 904.319 27.4185C904.319 25.7034 904.153 24.3738 903.82 23.4298L899.38 32.3446C899.86 33.036 900.52 33.3817 901.36 33.3817Z" fill="url(#paint73_linear_175_198)"/>
<path d="M901.36 43.1712C902.786 43.1712 903.866 43.7762 904.599 44.9861C905.346 46.1827 905.719 47.9245 905.719 50.2113C905.719 52.4982 905.346 54.2466 904.599 55.4565C903.866 56.6664 902.786 57.2714 901.36 57.2714C899.946 57.2714 898.867 56.6664 898.12 55.4565C897.373 54.2466 897 52.4982 897 50.2113C897 47.9378 897.373 46.196 898.12 44.9861C898.867 43.7762 899.946 43.1712 901.36 43.1712ZM898.42 50.2113C898.42 51.8334 898.567 53.1032 898.86 54.0206L903.3 45.1855C902.833 44.5606 902.186 44.2482 901.36 44.2482C900.44 44.2482 899.72 44.7401 899.2 45.724C898.68 46.6946 898.42 48.1904 898.42 50.2113ZM901.36 56.1745C902.293 56.1745 903.02 55.6892 903.54 54.7186C904.06 53.7347 904.319 52.2323 904.319 50.2113C904.319 48.4962 904.153 47.1666 903.82 46.2226L899.38 55.1374C899.86 55.8288 900.52 56.1745 901.36 56.1745Z" fill="url(#paint74_linear_175_198)"/>
<path d="M902.56 78.8078H905.499V79.8648H897.88V78.8078H901.28V67.5994L898.04 69.5339L897.48 68.6365L901.48 66.1635H902.56V78.8078Z" fill="url(#paint75_linear_175_198)"/>
<path d="M901.36 88.7568C902.786 88.7568 903.866 89.3618 904.599 90.5717C905.346 91.7683 905.719 93.5101 905.719 95.7969C905.719 98.0838 905.346 99.8322 904.599 101.042C903.866 102.252 902.786 102.857 901.36 102.857C899.946 102.857 898.867 102.252 898.12 101.042C897.373 99.8322 897 98.0838 897 95.7969C897 93.5234 897.373 91.7816 898.12 90.5717C898.867 89.3618 899.946 88.7568 901.36 88.7568ZM898.42 95.7969C898.42 97.419 898.567 98.6888 898.86 99.6062L903.3 90.7711C902.833 90.1462 902.186 89.8338 901.36 89.8338C900.44 89.8338 899.72 90.3257 899.2 91.3096C898.68 92.2802 898.42 93.776 898.42 95.7969ZM901.36 101.76C902.293 101.76 903.02 101.275 903.54 100.304C904.06 99.3203 904.319 97.8179 904.319 95.7969C904.319 94.0818 904.153 92.7522 903.82 91.8082L899.38 100.723C899.86 101.414 900.52 101.76 901.36 101.76Z" fill="url(#paint76_linear_175_198)"/>
<path d="M902.56 124.393H905.499V125.45H897.88V124.393H901.28V113.185L898.04 115.12L897.48 114.222L901.48 111.749H902.56V124.393Z" fill="url(#paint77_linear_175_198)"/>
<path d="M902.56 147.186H905.499V148.243H897.88V147.186H901.28V135.978L898.04 137.912L897.48 137.015L901.48 134.542H902.56V147.186Z" fill="url(#paint78_linear_175_198)"/>
<path d="M939.7 -12.3635H942.64V-11.3064H935.02V-12.3635H938.42V-23.5718L935.18 -21.6373L934.62 -22.5347L938.62 -25.0078H939.7V-12.3635Z" fill="url(#paint79_linear_175_198)"/>
<path d="M938.5 -2.41439C939.927 -2.41439 941.006 -1.80943 941.74 -0.599515C942.486 0.597107 942.86 2.33886 942.86 4.62573C942.86 6.91261 942.486 8.66101 941.74 9.87093C941.006 11.0808 939.927 11.6858 938.5 11.6858C937.087 11.6858 936.007 11.0808 935.26 9.87093C934.514 8.66101 934.14 6.91261 934.14 4.62573C934.14 2.35215 934.514 0.610402 935.26 -0.599515C936.007 -1.80943 937.087 -2.41439 938.5 -2.41439ZM935.56 4.62573C935.56 6.24782 935.707 7.51757 936 8.43498L940.44 -0.400079C939.973 -1.02498 939.327 -1.33744 938.5 -1.33744C937.58 -1.33744 936.86 -0.845489 936.34 0.138401C935.82 1.10899 935.56 2.60477 935.56 4.62573ZM938.5 10.5889C939.433 10.5889 940.16 10.1036 940.68 9.13301C941.2 8.14912 941.46 6.6467 941.46 4.62573C941.46 2.91057 941.293 1.58099 940.96 0.636991L936.52 9.55183C937 10.2432 937.66 10.5889 938.5 10.5889Z" fill="url(#paint80_linear_175_198)"/>
<path d="M939.7 33.2221H942.64V34.2792H935.02V33.2221H938.42V22.0138L935.18 23.9483L934.62 23.0509L938.62 20.5778H939.7V33.2221Z" fill="url(#paint81_linear_175_198)"/>
<path d="M939.7 56.015H942.64V57.072H935.02V56.015H938.42V44.8066L935.18 46.7411L934.62 45.8437L938.62 43.3706H939.7V56.015Z" fill="url(#paint82_linear_175_198)"/>
<path d="M938.5 65.964C939.927 65.964 941.006 66.569 941.74 67.7789C942.486 68.9755 942.86 70.7173 942.86 73.0041C942.86 75.291 942.486 77.0394 941.74 78.2493C941.006 79.4593 939.927 80.0642 938.5 80.0642C937.087 80.0642 936.007 79.4593 935.26 78.2493C934.514 77.0394 934.14 75.291 934.14 73.0041C934.14 70.7306 934.514 68.9888 935.26 67.7789C936.007 66.569 937.087 65.964 938.5 65.964ZM935.56 73.0041C935.56 74.6262 935.707 75.896 936 76.8134L940.44 67.9783C939.973 67.3534 939.327 67.041 938.5 67.041C937.58 67.041 936.86 67.5329 936.34 68.5168C935.82 69.4874 935.56 70.9832 935.56 73.0041ZM938.5 78.9673C939.433 78.9673 940.16 78.482 940.68 77.5114C941.2 76.5275 941.46 75.0251 941.46 73.0041C941.46 71.289 941.293 69.9594 940.96 69.0154L936.52 77.9302C937 78.6216 937.66 78.9673 938.5 78.9673Z" fill="url(#paint83_linear_175_198)"/>
<path d="M939.7 101.601H942.64V102.658H935.02V101.601H938.42V90.3922L935.18 92.3267L934.62 91.4293L938.62 88.9562H939.7V101.601Z" fill="url(#paint84_linear_175_198)"/>
<path d="M939.7 124.393H942.64V125.45H935.02V124.393H938.42V113.185L935.18 115.12L934.62 114.222L938.62 111.749H939.7V124.393Z" fill="url(#paint85_linear_175_198)"/>
<path d="M938.5 134.342C939.927 134.342 941.006 134.947 941.74 136.157C942.486 137.354 942.86 139.096 942.86 141.383C942.86 143.669 942.486 145.418 941.74 146.628C941.006 147.838 939.927 148.443 938.5 148.443C937.087 148.443 936.007 147.838 935.26 146.628C934.514 145.418 934.14 143.669 934.14 141.383C934.14 139.109 934.514 137.367 935.26 136.157C936.007 134.947 937.087 134.342 938.5 134.342ZM935.56 141.383C935.56 143.005 935.707 144.274 936 145.192L940.44 136.357C939.973 135.732 939.327 135.419 938.5 135.419C937.58 135.419 936.86 135.911 936.34 136.895C935.82 137.866 935.56 139.362 935.56 141.383ZM938.5 147.346C939.433 147.346 940.16 146.86 940.68 145.89C941.2 144.906 941.46 143.404 941.46 141.383C941.46 139.667 941.293 138.338 940.96 137.394L936.52 146.309C937 147 937.66 147.346 938.5 147.346Z" fill="url(#paint86_linear_175_198)"/>
<path d="M939.7 169.979H942.64V171.036H935.02V169.979H938.42V158.771L935.18 160.705L934.62 159.808L938.62 157.335H939.7V169.979Z" fill="url(#paint87_linear_175_198)"/>
<path d="M938.5 179.928C939.927 179.928 941.006 180.533 941.74 181.743C942.486 182.94 942.86 184.681 942.86 186.968C942.86 189.255 942.486 191.003 941.74 192.213C941.006 193.423 939.927 194.028 938.5 194.028C937.087 194.028 936.007 193.423 935.26 192.213C934.514 191.003 934.14 189.255 934.14 186.968C934.14 184.695 934.514 182.953 935.26 181.743C936.007 180.533 937.087 179.928 938.5 179.928ZM935.56 186.968C935.56 188.59 935.707 189.86 936 190.777L940.44 181.942C939.973 181.317 939.327 181.005 938.5 181.005C937.58 181.005 936.86 181.497 936.34 182.481C935.82 183.451 935.56 184.947 935.56 186.968ZM938.5 192.931C939.433 192.931 940.16 192.446 940.68 191.475C941.2 190.492 941.46 188.989 941.46 186.968C941.46 185.253 941.293 183.923 940.96 182.979L936.52 191.894C937 192.586 937.66 192.931 938.5 192.931Z" fill="url(#paint88_linear_175_198)"/>
<path d="M975.64 -25.2072C977.067 -25.2072 978.147 -24.6022 978.88 -23.3923C979.627 -22.1957 980 -20.4539 980 -18.1671C980 -15.8802 979.627 -14.1318 978.88 -12.9219C978.147 -11.712 977.067 -11.107 975.64 -11.107C974.227 -11.107 973.147 -11.712 972.401 -12.9219C971.654 -14.1318 971.281 -15.8802 971.281 -18.1671C971.281 -20.4407 971.654 -22.1824 972.401 -23.3923C973.147 -24.6022 974.227 -25.2072 975.64 -25.2072ZM972.7 -18.1671C972.7 -16.545 972.847 -15.2752 973.14 -14.3578L977.58 -23.1929C977.114 -23.8178 976.467 -24.1302 975.64 -24.1302C974.72 -24.1302 974 -23.6383 973.48 -22.6544C972.96 -21.6838 972.7 -20.188 972.7 -18.1671ZM975.64 -12.2039C976.574 -12.2039 977.3 -12.6892 977.82 -13.6598C978.34 -14.6437 978.6 -16.1461 978.6 -18.1671C978.6 -19.8822 978.433 -21.2118 978.1 -22.1558L973.66 -13.241C974.14 -12.5496 974.8 -12.2039 975.64 -12.2039Z" fill="url(#paint89_linear_175_198)"/>
<path d="M976.84 10.4293H979.78V11.4864H972.161V10.4293H975.56V-0.779011L972.321 1.15553L971.761 0.258059L975.76 -2.21496H976.84V10.4293Z" fill="url(#paint90_linear_175_198)"/>
<path d="M976.84 33.2221H979.78V34.2792H972.161V33.2221H975.56V22.0138L972.321 23.9483L971.761 23.0509L975.76 20.5778H976.84V33.2221Z" fill="url(#paint91_linear_175_198)"/>
<path d="M975.64 43.1712C977.067 43.1712 978.147 43.7762 978.88 44.9861C979.627 46.1827 980 47.9245 980 50.2113C980 52.4982 979.627 54.2466 978.88 55.4565C978.147 56.6664 977.067 57.2714 975.64 57.2714C974.227 57.2714 973.147 56.6664 972.401 55.4565C971.654 54.2466 971.281 52.4982 971.281 50.2113C971.281 47.9378 971.654 46.196 972.401 44.9861C973.147 43.7762 974.227 43.1712 975.64 43.1712ZM972.7 50.2113C972.7 51.8334 972.847 53.1032 973.14 54.0206L977.58 45.1855C977.114 44.5606 976.467 44.2482 975.64 44.2482C974.72 44.2482 974 44.7401 973.48 45.724C972.96 46.6946 972.7 48.1904 972.7 50.2113ZM975.64 56.1745C976.574 56.1745 977.3 55.6892 977.82 54.7186C978.34 53.7347 978.6 52.2323 978.6 50.2113C978.6 48.4962 978.433 47.1666 978.1 46.2226L973.66 55.1374C974.14 55.8288 974.8 56.1745 975.64 56.1745Z" fill="url(#paint92_linear_175_198)"/>
<path d="M975.64 65.964C977.067 65.964 978.147 66.569 978.88 67.7789C979.627 68.9755 980 70.7173 980 73.0041C980 75.291 979.627 77.0394 978.88 78.2493C978.147 79.4593 977.067 80.0642 975.64 80.0642C974.227 80.0642 973.147 79.4593 972.401 78.2493C971.654 77.0394 971.281 75.291 971.281 73.0041C971.281 70.7306 971.654 68.9888 972.401 67.7789C973.147 66.569 974.227 65.964 975.64 65.964ZM972.7 73.0041C972.7 74.6262 972.847 75.896 973.14 76.8134L977.58 67.9783C977.114 67.3534 976.467 67.041 975.64 67.041C974.72 67.041 974 67.5329 973.48 68.5168C972.96 69.4874 972.7 70.9832 972.7 73.0041ZM975.64 78.9673C976.574 78.9673 977.3 78.482 977.82 77.5114C978.34 76.5275 978.6 75.0251 978.6 73.0041C978.6 71.289 978.433 69.9594 978.1 69.0154L973.66 77.9302C974.14 78.6216 974.8 78.9673 975.64 78.9673Z" fill="url(#paint93_linear_175_198)"/>
</g>
<defs>
<filter id="filter0_f_175_198" x="-558.19" y="-734.19" width="2141.38" height="1500.38" filterUnits="userSpaceOnUse" color-interpolation-filters="sRGB">
<feFlood flood-opacity="0" result="BackgroundImageFix"/>
<feBlend mode="normal" in="SourceGraphic" in2="BackgroundImageFix" result="shape"/>
<feGaussianBlur stdDeviation="200.095" result="effect1_foregroundBlur_175_198"/>
</filter>
<linearGradient id="paint0_linear_175_198" x1="52.5" y1="252" x2="52.5" y2="563.381" gradientUnits="userSpaceOnUse">
<stop stop-color="#F7DD43"/>
<stop offset="1" stop-color="#F7DD43" stop-opacity="0"/>
</linearGradient>
<linearGradient id="paint1_linear_175_198" x1="52.5" y1="252" x2="52.5" y2="563.381" gradientUnits="userSpaceOnUse">
<stop stop-color="#F7DD43"/>
<stop offset="1" stop-color="#F7DD43" stop-opacity="0"/>
</linearGradient>
<linearGradient id="paint2_linear_175_198" x1="52.5" y1="252" x2="52.5" y2="563.381" gradientUnits="userSpaceOnUse">
<stop stop-color="#F7DD43"/>
<stop offset="1" stop-color="#F7DD43" stop-opacity="0"/>
</linearGradient>
<linearGradient id="paint3_linear_175_198" x1="52.5" y1="252" x2="52.5" y2="563.381" gradientUnits="userSpaceOnUse">
<stop stop-color="#F7DD43"/>
<stop offset="1" stop-color="#F7DD43" stop-opacity="0"/>
</linearGradient>
<linearGradient id="paint4_linear_175_198" x1="52.5" y1="252" x2="52.5" y2="563.381" gradientUnits="userSpaceOnUse">
<stop stop-color="#F7DD43"/>
<stop offset="1" stop-color="#F7DD43" stop-opacity="0"/>
</linearGradient>
<linearGradient id="paint5_linear_175_198" x1="52.5" y1="252" x2="52.5" y2="563.381" gradientUnits="userSpaceOnUse">
<stop stop-color="#F7DD43"/>
<stop offset="1" stop-color="#F7DD43" stop-opacity="0"/>
</linearGradient>
<linearGradient id="paint6_linear_175_198" x1="52.5" y1="252" x2="52.5" y2="563.381" gradientUnits="userSpaceOnUse">
<stop stop-color="#F7DD43"/>
<stop offset="1" stop-color="#F7DD43" stop-opacity="0"/>
</linearGradient>
<linearGradient id="paint7_linear_175_198" x1="52.5" y1="252" x2="52.5" y2="563.381" gradientUnits="userSpaceOnUse">
<stop stop-color="#F7DD43"/>
<stop offset="1" stop-color="#F7DD43" stop-opacity="0"/>
</linearGradient>
<linearGradient id="paint8_linear_175_198" x1="52.5" y1="252" x2="52.5" y2="563.381" gradientUnits="userSpaceOnUse">
<stop stop-color="#F7DD43"/>
<stop offset="1" stop-color="#F7DD43" stop-opacity="0"/>
</linearGradient>
<linearGradient id="paint9_linear_175_198" x1="52.5" y1="252" x2="52.5" y2="563.381" gradientUnits="userSpaceOnUse">
<stop stop-color="#F7DD43"/>
<stop offset="1" stop-color="#F7DD43" stop-opacity="0"/>
</linearGradient>
<linearGradient id="paint10_linear_175_198" x1="52.5" y1="252" x2="52.5" y2="563.381" gradientUnits="userSpaceOnUse">
<stop stop-color="#F7DD43"/>
<stop offset="1" stop-color="#F7DD43" stop-opacity="0"/>
</linearGradient>
<linearGradient id="paint11_linear_175_198" x1="52.5" y1="252" x2="52.5" y2="563.381" gradientUnits="userSpaceOnUse">
<stop stop-color="#F7DD43"/>
<stop offset="1" stop-color="#F7DD43" stop-opacity="0"/>
</linearGradient>
<linearGradient id="paint12_linear_175_198" x1="52.5" y1="252" x2="52.5" y2="563.381" gradientUnits="userSpaceOnUse">
<stop stop-color="#F7DD43"/>
<stop offset="1" stop-color="#F7DD43" stop-opacity="0"/>
</linearGradient>
<linearGradient id="paint13_linear_175_198" x1="52.5" y1="252" x2="52.5" y2="563.381" gradientUnits="userSpaceOnUse">
<stop stop-color="#F7DD43"/>
<stop offset="1" stop-color="#F7DD43" stop-opacity="0"/>
</linearGradient>
<linearGradient id="paint14_linear_175_198" x1="52.5" y1="252" x2="52.5" y2="563.381" gradientUnits="userSpaceOnUse">
<stop stop-color="#F7DD43"/>
<stop offset="1" stop-color="#F7DD43" stop-opacity="0"/>
</linearGradient>
<linearGradient id="paint15_linear_175_198" x1="52.5" y1="252" x2="52.5" y2="563.381" gradientUnits="userSpaceOnUse">
<stop stop-color="#F7DD43"/>
<stop offset="1" stop-color="#F7DD43" stop-opacity="0"/>
</linearGradient>
<linearGradient id="paint16_linear_175_198" x1="52.5" y1="252" x2="52.5" y2="563.381" gradientUnits="userSpaceOnUse">
<stop stop-color="#F7DD43"/>
<stop offset="1" stop-color="#F7DD43" stop-opacity="0"/>
</linearGradient>
<linearGradient id="paint17_linear_175_198" x1="52.5" y1="252" x2="52.5" y2="563.381" gradientUnits="userSpaceOnUse">
<stop stop-color="#F7DD43"/>
<stop offset="1" stop-color="#F7DD43" stop-opacity="0"/>
</linearGradient>
<linearGradient id="paint18_linear_175_198" x1="52.5" y1="252" x2="52.5" y2="563.381" gradientUnits="userSpaceOnUse">
<stop stop-color="#F7DD43"/>
<stop offset="1" stop-color="#F7DD43" stop-opacity="0"/>
</linearGradient>
<linearGradient id="paint19_linear_175_198" x1="52.5" y1="252" x2="52.5" y2="563.381" gradientUnits="userSpaceOnUse">
<stop stop-color="#F7DD43"/>
<stop offset="1" stop-color="#F7DD43" stop-opacity="0"/>
</linearGradient>
<linearGradient id="paint20_linear_175_198" x1="52.5" y1="252" x2="52.5" y2="563.381" gradientUnits="userSpaceOnUse">
<stop stop-color="#F7DD43"/>
<stop offset="1" stop-color="#F7DD43" stop-opacity="0"/>
</linearGradient>
<linearGradient id="paint21_linear_175_198" x1="52.5" y1="252" x2="52.5" y2="563.381" gradientUnits="userSpaceOnUse">
<stop stop-color="#F7DD43"/>
<stop offset="1" stop-color="#F7DD43" stop-opacity="0"/>
</linearGradient>
<linearGradient id="paint22_linear_175_198" x1="52.5" y1="252" x2="52.5" y2="563.381" gradientUnits="userSpaceOnUse">
<stop stop-color="#F7DD43"/>
<stop offset="1" stop-color="#F7DD43" stop-opacity="0"/>
</linearGradient>
<linearGradient id="paint23_linear_175_198" x1="52.5" y1="252" x2="52.5" y2="563.381" gradientUnits="userSpaceOnUse">
<stop stop-color="#F7DD43"/>
<stop offset="1" stop-color="#F7DD43" stop-opacity="0"/>
</linearGradient>
<linearGradient id="paint24_linear_175_198" x1="52.5" y1="252" x2="52.5" y2="563.381" gradientUnits="userSpaceOnUse">
<stop stop-color="#F7DD43"/>
<stop offset="1" stop-color="#F7DD43" stop-opacity="0"/>
</linearGradient>
<linearGradient id="paint25_linear_175_198" x1="52.5" y1="252" x2="52.5" y2="563.381" gradientUnits="userSpaceOnUse">
<stop stop-color="#F7DD43"/>
<stop offset="1" stop-color="#F7DD43" stop-opacity="0"/>
</linearGradient>
<linearGradient id="paint26_linear_175_198" x1="52.5" y1="252" x2="52.5" y2="563.381" gradientUnits="userSpaceOnUse">
<stop stop-color="#F7DD43"/>
<stop offset="1" stop-color="#F7DD43" stop-opacity="0"/>
</linearGradient>
<linearGradient id="paint27_linear_175_198" x1="52.5" y1="252" x2="52.5" y2="563.381" gradientUnits="userSpaceOnUse">
<stop stop-color="#F7DD43"/>
<stop offset="1" stop-color="#F7DD43" stop-opacity="0"/>
</linearGradient>
<linearGradient id="paint28_linear_175_198" x1="52.5" y1="252" x2="52.5" y2="563.381" gradientUnits="userSpaceOnUse">
<stop stop-color="#F7DD43"/>
<stop offset="1" stop-color="#F7DD43" stop-opacity="0"/>
</linearGradient>
<linearGradient id="paint29_linear_175_198" x1="52.5" y1="252" x2="52.5" y2="563.381" gradientUnits="userSpaceOnUse">
<stop stop-color="#F7DD43"/>
<stop offset="1" stop-color="#F7DD43" stop-opacity="0"/>
</linearGradient>
<linearGradient id="paint30_linear_175_198" x1="52.5" y1="252" x2="52.5" y2="563.381" gradientUnits="userSpaceOnUse">
<stop stop-color="#F7DD43"/>
<stop offset="1" stop-color="#F7DD43" stop-opacity="0"/>
</linearGradient>
<linearGradient id="paint31_linear_175_198" x1="52.5" y1="252" x2="52.5" y2="563.381" gradientUnits="userSpaceOnUse">
<stop stop-color="#F7DD43"/>
<stop offset="1" stop-color="#F7DD43" stop-opacity="0"/>
</linearGradient>
<linearGradient id="paint32_linear_175_198" x1="52.5" y1="252" x2="52.5" y2="563.381" gradientUnits="userSpaceOnUse">
<stop stop-color="#F7DD43"/>
<stop offset="1" stop-color="#F7DD43" stop-opacity="0"/>
</linearGradient>
<linearGradient id="paint33_linear_175_198" x1="52.5" y1="252" x2="52.5" y2="563.381" gradientUnits="userSpaceOnUse">
<stop stop-color="#F7DD43"/>
<stop offset="1" stop-color="#F7DD43" stop-opacity="0"/>
</linearGradient>
<linearGradient id="paint34_linear_175_198" x1="52.5" y1="252" x2="52.5" y2="563.381" gradientUnits="userSpaceOnUse">
<stop stop-color="#F7DD43"/>
<stop offset="1" stop-color="#F7DD43" stop-opacity="0"/>
</linearGradient>
<linearGradient id="paint35_linear_175_198" x1="52.5" y1="252" x2="52.5" y2="563.381" gradientUnits="userSpaceOnUse">
<stop stop-color="#F7DD43"/>
<stop offset="1" stop-color="#F7DD43" stop-opacity="0"/>
</linearGradient>
<linearGradient id="paint36_linear_175_198" x1="52.5" y1="252" x2="52.5" y2="563.381" gradientUnits="userSpaceOnUse">
<stop stop-color="#F7DD43"/>
<stop offset="1" stop-color="#F7DD43" stop-opacity="0"/>
</linearGradient>
<linearGradient id="paint37_linear_175_198" x1="52.5" y1="252" x2="52.5" y2="563.381" gradientUnits="userSpaceOnUse">
<stop stop-color="#F7DD43"/>
<stop offset="1" stop-color="#F7DD43" stop-opacity="0"/>
</linearGradient>
<linearGradient id="paint38_linear_175_198" x1="52.5" y1="252" x2="52.5" y2="563.381" gradientUnits="userSpaceOnUse">
<stop stop-color="#F7DD43"/>
<stop offset="1" stop-color="#F7DD43" stop-opacity="0"/>
</linearGradient>
<linearGradient id="paint39_linear_175_198" x1="52.5" y1="252" x2="52.5" y2="563.381" gradientUnits="userSpaceOnUse">
<stop stop-color="#F7DD43"/>
<stop offset="1" stop-color="#F7DD43" stop-opacity="0"/>
</linearGradient>
<linearGradient id="paint40_linear_175_198" x1="52.5" y1="252" x2="52.5" y2="563.381" gradientUnits="userSpaceOnUse">
<stop stop-color="#F7DD43"/>
<stop offset="1" stop-color="#F7DD43" stop-opacity="0"/>
</linearGradient>
<linearGradient id="paint41_linear_175_198" x1="52.5" y1="252" x2="52.5" y2="563.381" gradientUnits="userSpaceOnUse">
<stop stop-color="#F7DD43"/>
<stop offset="1" stop-color="#F7DD43" stop-opacity="0"/>
</linearGradient>
<linearGradient id="paint42_linear_175_198" x1="52.5" y1="252" x2="52.5" y2="563.381" gradientUnits="userSpaceOnUse">
<stop stop-color="#F7DD43"/>
<stop offset="1" stop-color="#F7DD43" stop-opacity="0"/>
</linearGradient>
<linearGradient id="paint43_linear_175_198" x1="52.5" y1="252" x2="52.5" y2="563.381" gradientUnits="userSpaceOnUse">
<stop stop-color="#F7DD43"/>
<stop offset="1" stop-color="#F7DD43" stop-opacity="0"/>
</linearGradient>
<linearGradient id="paint44_linear_175_198" x1="52.5" y1="252" x2="52.5" y2="563.381" gradientUnits="userSpaceOnUse">
<stop stop-color="#F7DD43"/>
<stop offset="1" stop-color="#F7DD43" stop-opacity="0"/>
</linearGradient>
<linearGradient id="paint45_linear_175_198" x1="52.5" y1="252" x2="52.5" y2="563.381" gradientUnits="userSpaceOnUse">
<stop stop-color="#F7DD43"/>
<stop offset="1" stop-color="#F7DD43" stop-opacity="0"/>
</linearGradient>
<linearGradient id="paint46_linear_175_198" x1="52.5" y1="252" x2="52.5" y2="563.381" gradientUnits="userSpaceOnUse">
<stop stop-color="#F7DD43"/>
<stop offset="1" stop-color="#F7DD43" stop-opacity="0"/>
</linearGradient>
<linearGradient id="paint47_linear_175_198" x1="938.5" y1="-48" x2="938.5" y2="250.818" gradientUnits="userSpaceOnUse">
<stop stop-color="#F7DD43"/>
<stop offset="1" stop-color="#F7DD43" stop-opacity="0"/>
</linearGradient>
<linearGradient id="paint48_linear_175_198" x1="938.5" y1="-48" x2="938.5" y2="250.818" gradientUnits="userSpaceOnUse">
<stop stop-color="#F7DD43"/>
<stop offset="1" stop-color="#F7DD43" stop-opacity="0"/>
</linearGradient>
<linearGradient id="paint49_linear_175_198" x1="938.5" y1="-48" x2="938.5" y2="250.818" gradientUnits="userSpaceOnUse">
<stop stop-color="#F7DD43"/>
<stop offset="1" stop-color="#F7DD43" stop-opacity="0"/>
</linearGradient>
<linearGradient id="paint50_linear_175_198" x1="938.5" y1="-48" x2="938.5" y2="250.818" gradientUnits="userSpaceOnUse">
<stop stop-color="#F7DD43"/>
<stop offset="1" stop-color="#F7DD43" stop-opacity="0"/>
</linearGradient>
<linearGradient id="paint51_linear_175_198" x1="938.5" y1="-48" x2="938.5" y2="250.818" gradientUnits="userSpaceOnUse">
<stop stop-color="#F7DD43"/>
<stop offset="1" stop-color="#F7DD43" stop-opacity="0"/>
</linearGradient>
<linearGradient id="paint52_linear_175_198" x1="938.5" y1="-48" x2="938.5" y2="250.818" gradientUnits="userSpaceOnUse">
<stop stop-color="#F7DD43"/>
<stop offset="1" stop-color="#F7DD43" stop-opacity="0"/>
</linearGradient>
<linearGradient id="paint53_linear_175_198" x1="938.5" y1="-48" x2="938.5" y2="250.818" gradientUnits="userSpaceOnUse">
<stop stop-color="#F7DD43"/>
<stop offset="1" stop-color="#F7DD43" stop-opacity="0"/>
</linearGradient>
<linearGradient id="paint54_linear_175_198" x1="938.5" y1="-48" x2="938.5" y2="250.818" gradientUnits="userSpaceOnUse">
<stop stop-color="#F7DD43"/>
<stop offset="1" stop-color="#F7DD43" stop-opacity="0"/>
</linearGradient>
<linearGradient id="paint55_linear_175_198" x1="938.5" y1="-48" x2="938.5" y2="250.818" gradientUnits="userSpaceOnUse">
<stop stop-color="#F7DD43"/>
<stop offset="1" stop-color="#F7DD43" stop-opacity="0"/>
</linearGradient>
<linearGradient id="paint56_linear_175_198" x1="938.5" y1="-48" x2="938.5" y2="250.818" gradientUnits="userSpaceOnUse">
<stop stop-color="#F7DD43"/>
<stop offset="1" stop-color="#F7DD43" stop-opacity="0"/>
</linearGradient>
<linearGradient id="paint57_linear_175_198" x1="938.5" y1="-48" x2="938.5" y2="250.818" gradientUnits="userSpaceOnUse">
<stop stop-color="#F7DD43"/>
<stop offset="1" stop-color="#F7DD43" stop-opacity="0"/>
</linearGradient>
<linearGradient id="paint58_linear_175_198" x1="938.5" y1="-48" x2="938.5" y2="250.818" gradientUnits="userSpaceOnUse">
<stop stop-color="#F7DD43"/>
<stop offset="1" stop-color="#F7DD43" stop-opacity="0"/>
</linearGradient>
<linearGradient id="paint59_linear_175_198" x1="938.5" y1="-48" x2="938.5" y2="250.818" gradientUnits="userSpaceOnUse">
<stop stop-color="#F7DD43"/>
<stop offset="1" stop-color="#F7DD43" stop-opacity="0"/>
</linearGradient>
<linearGradient id="paint60_linear_175_198" x1="938.5" y1="-48" x2="938.5" y2="250.818" gradientUnits="userSpaceOnUse">
<stop stop-color="#F7DD43"/>
<stop offset="1" stop-color="#F7DD43" stop-opacity="0"/>
</linearGradient>
<linearGradient id="paint61_linear_175_198" x1="938.5" y1="-48" x2="938.5" y2="250.818" gradientUnits="userSpaceOnUse">
<stop stop-color="#F7DD43"/>
<stop offset="1" stop-color="#F7DD43" stop-opacity="0"/>
</linearGradient>
<linearGradient id="paint62_linear_175_198" x1="938.5" y1="-48" x2="938.5" y2="250.818" gradientUnits="userSpaceOnUse">
<stop stop-color="#F7DD43"/>
<stop offset="1" stop-color="#F7DD43" stop-opacity="0"/>
</linearGradient>
<linearGradient id="paint63_linear_175_198" x1="938.5" y1="-48" x2="938.5" y2="250.818" gradientUnits="userSpaceOnUse">
<stop stop-color="#F7DD43"/>
<stop offset="1" stop-color="#F7DD43" stop-opacity="0"/>
</linearGradient>
<linearGradient id="paint64_linear_175_198" x1="938.5" y1="-48" x2="938.5" y2="250.818" gradientUnits="userSpaceOnUse">
<stop stop-color="#F7DD43"/>
<stop offset="1" stop-color="#F7DD43" stop-opacity="0"/>
</linearGradient>
<linearGradient id="paint65_linear_175_198" x1="938.5" y1="-48" x2="938.5" y2="250.818" gradientUnits="userSpaceOnUse">
<stop stop-color="#F7DD43"/>
<stop offset="1" stop-color="#F7DD43" stop-opacity="0"/>
</linearGradient>
<linearGradient id="paint66_linear_175_198" x1="938.5" y1="-48" x2="938.5" y2="250.818" gradientUnits="userSpaceOnUse">
<stop stop-color="#F7DD43"/>
<stop offset="1" stop-color="#F7DD43" stop-opacity="0"/>
</linearGradient>
<linearGradient id="paint67_linear_175_198" x1="938.5" y1="-48" x2="938.5" y2="250.818" gradientUnits="userSpaceOnUse">
<stop stop-color="#F7DD43"/>
<stop offset="1" stop-color="#F7DD43" stop-opacity="0"/>
</linearGradient>
<linearGradient id="paint68_linear_175_198" x1="938.5" y1="-48" x2="938.5" y2="250.818" gradientUnits="userSpaceOnUse">
<stop stop-color="#F7DD43"/>
<stop offset="1" stop-color="#F7DD43" stop-opacity="0"/>
</linearGradient>
<linearGradient id="paint69_linear_175_198" x1="938.5" y1="-48" x2="938.5" y2="250.818" gradientUnits="userSpaceOnUse">
<stop stop-color="#F7DD43"/>
<stop offset="1" stop-color="#F7DD43" stop-opacity="0"/>
</linearGradient>
<linearGradient id="paint70_linear_175_198" x1="938.5" y1="-48" x2="938.5" y2="250.818" gradientUnits="userSpaceOnUse">
<stop stop-color="#F7DD43"/>
<stop offset="1" stop-color="#F7DD43" stop-opacity="0"/>
</linearGradient>
<linearGradient id="paint71_linear_175_198" x1="938.5" y1="-48" x2="938.5" y2="250.818" gradientUnits="userSpaceOnUse">
<stop stop-color="#F7DD43"/>
<stop offset="1" stop-color="#F7DD43" stop-opacity="0"/>
</linearGradient>
<linearGradient id="paint72_linear_175_198" x1="938.5" y1="-48" x2="938.5" y2="250.818" gradientUnits="userSpaceOnUse">
<stop stop-color="#F7DD43"/>
<stop offset="1" stop-color="#F7DD43" stop-opacity="0"/>
</linearGradient>
<linearGradient id="paint73_linear_175_198" x1="938.5" y1="-48" x2="938.5" y2="250.818" gradientUnits="userSpaceOnUse">
<stop stop-color="#F7DD43"/>
<stop offset="1" stop-color="#F7DD43" stop-opacity="0"/>
</linearGradient>
<linearGradient id="paint74_linear_175_198" x1="938.5" y1="-48" x2="938.5" y2="250.818" gradientUnits="userSpaceOnUse">
<stop stop-color="#F7DD43"/>
<stop offset="1" stop-color="#F7DD43" stop-opacity="0"/>
</linearGradient>
<linearGradient id="paint75_linear_175_198" x1="938.5" y1="-48" x2="938.5" y2="250.818" gradientUnits="userSpaceOnUse">
<stop stop-color="#F7DD43"/>
<stop offset="1" stop-color="#F7DD43" stop-opacity="0"/>
</linearGradient>
<linearGradient id="paint76_linear_175_198" x1="938.5" y1="-48" x2="938.5" y2="250.818" gradientUnits="userSpaceOnUse">
<stop stop-color="#F7DD43"/>
<stop offset="1" stop-color="#F7DD43" stop-opacity="0"/>
</linearGradient>
<linearGradient id="paint77_linear_175_198" x1="938.5" y1="-48" x2="938.5" y2="250.818" gradientUnits="userSpaceOnUse">
<stop stop-color="#F7DD43"/>
<stop offset="1" stop-color="#F7DD43" stop-opacity="0"/>
</linearGradient>
<linearGradient id="paint78_linear_175_198" x1="938.5" y1="-48" x2="938.5" y2="250.818" gradientUnits="userSpaceOnUse">
<stop stop-color="#F7DD43"/>
<stop offset="1" stop-color="#F7DD43" stop-opacity="0"/>
</linearGradient>
<linearGradient id="paint79_linear_175_198" x1="938.5" y1="-48" x2="938.5" y2="250.818" gradientUnits="userSpaceOnUse">
<stop stop-color="#F7DD43"/>
<stop offset="1" stop-color="#F7DD43" stop-opacity="0"/>
</linearGradient>
<linearGradient id="paint80_linear_175_198" x1="938.5" y1="-48" x2="938.5" y2="250.818" gradientUnits="userSpaceOnUse">
<stop stop-color="#F7DD43"/>
<stop offset="1" stop-color="#F7DD43" stop-opacity="0"/>
</linearGradient>
<linearGradient id="paint81_linear_175_198" x1="938.5" y1="-48" x2="938.5" y2="250.818" gradientUnits="userSpaceOnUse">
<stop stop-color="#F7DD43"/>
<stop offset="1" stop-color="#F7DD43" stop-opacity="0"/>
</linearGradient>
<linearGradient id="paint82_linear_175_198" x1="938.5" y1="-48" x2="938.5" y2="250.818" gradientUnits="userSpaceOnUse">
<stop stop-color="#F7DD43"/>
<stop offset="1" stop-color="#F7DD43" stop-opacity="0"/>
</linearGradient>
<linearGradient id="paint83_linear_175_198" x1="938.5" y1="-48" x2="938.5" y2="250.818" gradientUnits="userSpaceOnUse">
<stop stop-color="#F7DD43"/>
<stop offset="1" stop-color="#F7DD43" stop-opacity="0"/>
</linearGradient>
<linearGradient id="paint84_linear_175_198" x1="938.5" y1="-48" x2="938.5" y2="250.818" gradientUnits="userSpaceOnUse">
<stop stop-color="#F7DD43"/>
<stop offset="1" stop-color="#F7DD43" stop-opacity="0"/>
</linearGradient>
<linearGradient id="paint85_linear_175_198" x1="938.5" y1="-48" x2="938.5" y2="250.818" gradientUnits="userSpaceOnUse">
<stop stop-color="#F7DD43"/>
<stop offset="1" stop-color="#F7DD43" stop-opacity="0"/>
</linearGradient>
<linearGradient id="paint86_linear_175_198" x1="938.5" y1="-48" x2="938.5" y2="250.818" gradientUnits="userSpaceOnUse">
<stop stop-color="#F7DD43"/>
<stop offset="1" stop-color="#F7DD43" stop-opacity="0"/>
</linearGradient>
<linearGradient id="paint87_linear_175_198" x1="938.5" y1="-48" x2="938.5" y2="250.818" gradientUnits="userSpaceOnUse">
<stop stop-color="#F7DD43"/>
<stop offset="1" stop-color="#F7DD43" stop-opacity="0"/>
</linearGradient>
<linearGradient id="paint88_linear_175_198" x1="938.5" y1="-48" x2="938.5" y2="250.818" gradientUnits="userSpaceOnUse">
<stop stop-color="#F7DD43"/>
<stop offset="1" stop-color="#F7DD43" stop-opacity="0"/>
</linearGradient>
<linearGradient id="paint89_linear_175_198" x1="938.5" y1="-48" x2="938.5" y2="250.818" gradientUnits="userSpaceOnUse">
<stop stop-color="#F7DD43"/>
<stop offset="1" stop-color="#F7DD43" stop-opacity="0"/>
</linearGradient>
<linearGradient id="paint90_linear_175_198" x1="938.5" y1="-48" x2="938.5" y2="250.818" gradientUnits="userSpaceOnUse">
<stop stop-color="#F7DD43"/>
<stop offset="1" stop-color="#F7DD43" stop-opacity="0"/>
</linearGradient>
<linearGradient id="paint91_linear_175_198" x1="938.5" y1="-48" x2="938.5" y2="250.818" gradientUnits="userSpaceOnUse">
<stop stop-color="#F7DD43"/>
<stop offset="1" stop-color="#F7DD43" stop-opacity="0"/>
</linearGradient>
<linearGradient id="paint92_linear_175_198" x1="938.5" y1="-48" x2="938.5" y2="250.818" gradientUnits="userSpaceOnUse">
<stop stop-color="#F7DD43"/>
<stop offset="1" stop-color="#F7DD43" stop-opacity="0"/>
</linearGradient>
<linearGradient id="paint93_linear_175_198" x1="938.5" y1="-48" x2="938.5" y2="250.818" gradientUnits="userSpaceOnUse">
<stop stop-color="#F7DD43"/>
<stop offset="1" stop-color="#F7DD43" stop-opacity="0"/>
</linearGradient>
</defs>
</svg>
